<?xml version="1.0" encoding="utf-8"?>
<!-- Generator: Adobe Illustrator 23.0.4, SVG Export Plug-In . SVG Version: 6.00 Build 0)  -->
<svg version="1.1" id="Layer_1" xmlns="http://www.w3.org/2000/svg" xmlns:xlink="http://www.w3.org/1999/xlink" x="0px" y="0px"
	 viewBox="0 0 318.3 220" style="enable-background:new 0 0 318.3 220;" xml:space="preserve">
<g id="c-group">
	<g>
		<defs>
			<path id="SVGID_1_" d="M57.5,32l-0.3,0.2c-0.1-0.3-0.2-0.5-0.2-0.6c-0.4,0.2-0.6,0.3-0.7,0.2c-0.1,0-0.1-0.2-0.1-0.5
				c-0.6,0.4-1.1,0.7-1.4,0.9V32c0.2-0.4,0.4-0.8,0.5-1.1c-0.3-0.1-0.3-0.3,0-0.8c0-0.1,0.2-0.4,0.6-0.9L55.7,29
				c-0.7,0.7-1.1,1.1-1.2,1.2C54,30.8,53.7,31,53.6,31c-0.5,0.1-1,0.1-1.4-0.2c-0.3-0.2-0.3-0.6,0.1-1.1c0.3-0.5,0.5-0.9,0.4-1.1
				l-0.3,0.3L51.9,29v-0.5c0-0.2,0.2-0.8,0.6-1.8l0.2-0.3c-0.1-1,0.3-1.9,1.2-2.6c0.7-0.7,1.2-1.5,1.5-2.4c0-0.3,0-0.5,0-0.8
				c-0.1-0.7-0.5-1-1.1-0.8c-1.2,0.3-2.1,0.6-2.7,0.9c-3.5,1.7-7.3,4.2-11.3,7.4c-1.6,1.3-2.9,2.5-3.9,3.5c-2,1.9-3.5,3.5-4.5,4.7
				c-2,2.4-3.4,4.3-4.1,5.6c-0.5,0.8-1.2,1.9-2.2,3.4s-1.7,2.6-2.2,3.4c-3.5,6.2-6.1,12.2-7.7,17.9c-1.2,4-1.8,8.3-1.8,12.9
				c0,1.3,0.5,2.3,1.5,3c2.1,1.5,4.4,2.4,6.8,2.6c2.1,0.2,4.7,0.4,7.7,0.5c0.2,0.1,0.9,0,2.1-0.3c0.8-0.2,1.5-0.4,2-0.6
				c1-0.3,2.1-0.7,3.2-1.1c1.1-0.4,1.9-0.7,2.4-0.9c2-1,3.6-1.8,4.8-2.4c1.1-0.6,2.4-1.4,3.8-2.3c0.1-0.1,0.2-0.4,0.2-0.8
				c0-0.2-0.1-0.4-0.2-0.5c-0.9-0.4-1.1-1-0.5-1.8c0.1-0.1,0.2-0.2,0.4-0.4c0.2-0.2,0.2-0.3,0.2-0.4c0.3-0.4,1-0.7,2-0.9
				c0.4-0.1,1.2-0.1,2.3,0c0.7,0,1.2,0.5,1.5,1.4c0.2,0.2,0.3,0.4,0.3,0.5l0.5,0.8c0,0.2,0,0.5,0.1,0.9c0,0.4,0.1,0.7,0.2,0.8
				c0,0.1,0,0.3,0.2,0.5l0.2,0.2c0.1,0.3,0.2,0.7,0.5,1.2c0.2,0.5,0.4,1,0.5,1.4c0.2,0.4,0.2,0.8,0.2,1.2c0.1,0.3,0.2,1.2,0.5,2.6
				c0.1,0.6,0,1.1-0.3,1.5c-0.8,1.1-1.9,2.1-3.2,3c-0.1,0.1-0.4,0.4-1,0.8s-1,0.7-1.3,0.9c-1,0.6-2.2,1.3-3.6,2.1
				c-1.3,0.6-2.4,1.1-3.3,1.5l-3,1.2c-0.2,0.1-0.5,0.2-0.8,0.3c-0.3,0.1-0.6,0.2-0.8,0.3c-0.5,0.2-1.2,0.4-2,0.6
				c-0.1,0.1-0.9,0.4-2.3,0.8c-1,0.2-1.6,0.3-1.8,0.3c-0.9,0.1-1.6,0.2-2.1,0.3c-1,0-1.9,0-2.6,0c-0.4-0.1-1.1-0.2-2.1-0.2
				c-1-0.1-1.8-0.1-2.3-0.1c-3.9-0.2-7.3-1.1-10.2-2.7c-4.7-2.5-8-6.5-9.9-11.9c-1.5-4.1-2-8.7-1.5-13.8C3.8,63,6,55.8,9.8,47.8
				c4.4-9.6,10.9-18.6,19.4-26.9c3.4-3.3,5.9-5.5,7.5-6.6c3.8-2.5,8.1-4.1,12.9-4.7c2.9-0.3,5.9-0.2,8.9,0.2
				c0.1,0.1,1.1,0.2,2.9,0.3c0.9,0.1,1.6,0.3,2,0.6s0.9,0.7,1.6,1.1c0.7,0.5,1.1,0.7,1.3,0.8c0.6,0.5,1,1,1.1,1.5
				c0.1,0.3,0.2,0.8,0.4,1.4c0.2,0.6,0.3,1.1,0.4,1.4c0.1,1.5-0.3,3-1.2,4.4c-0.1,0.3-0.3,0.8-0.5,1.4c-0.3,0.6-0.4,1.1-0.5,1.4
				c-0.7,1.5-1.7,2.8-2.9,3.9c-0.3,0.2-0.6,0.5-0.8,0.8c-0.3,0.3-0.5,0.6-0.8,0.9s-0.6,0.6-0.8,0.8c-0.1,0.1-0.5,0.3-1.1,0.6h-0.2
				c-0.2,0.2-0.5,0.4-0.9,0.7C58,31.8,57.7,31.9,57.5,32z"/>
		</defs>
		<use xlink:href="#SVGID_1_"  style="overflow:visible;fill:#D8C4B3;"/>
		<clipPath id="SVGID_2_">
			<use xlink:href="#SVGID_1_"  style="overflow:visible;"/>
		</clipPath>
		<g id="c-path" style="clip-path:url(#SVGID_2_);">
			<path style="fill:#D8C4B3;" d="M24.2,98.9c-8.5,0-12.5-3.1-16.4-6.1l-1-0.8C0.1,86.9,1,76.1,1.5,68.9c0.1-0.8,0.2-1.9,0.2-2.2
				c0-5.9,7.2-21.1,9.6-25.3c4.4-7.4,14.1-17.8,21.5-25.2c8.7-8.7,15.1-9,20.9-8.5c1,0.1,1.8,0.1,2.3,0.1c4.6-0.9,8.8,1,10.9,4.9
				c3,5.6,0.3,13.9-3,17.4c-1.1,1.2-4,5.2-5.6,7.6L46,29.2c0.5-0.8,2.7-4,4.8-6.7c-2,0-3.7,0.8-7.2,4.3C34.2,36.2,27,44.5,24.3,49
				c-3,5-7.1,15.4-7.6,18c0,0.9-0.1,1.9-0.2,3.1c-0.2,2.1-0.7,8.1,0,10.5c0.2,0.1,0.3,0.2,0.5,0.3c3.2,2.5,3.9,3,7.2,3
				c3.4,0,10.3,0,12.7-0.7c1.6-1.4,3.4-2.1,4.7-2.7c0.2-0.1,0.4-0.2,0.7-0.3c1.9-4,6.2-8.7,8.8-11.3l10.7,10.5
				c-2.5,2.5-5.2,5.8-5.8,7c-1.7,5-6.1,6.9-8.4,7.9c-0.4,0.2-0.8,0.4-1.1,0.5C42.4,98.6,35.3,98.9,24.2,98.9z M37.3,83.1L37.3,83.1
				L37.3,83.1z M41.8,81.4C41.8,81.5,41.8,81.5,41.8,81.4C41.8,81.5,41.8,81.5,41.8,81.4z M16.7,66.7c0,0,0,0.1,0,0.1
				C16.7,66.8,16.7,66.7,16.7,66.7z"/>
		</g>
	</g>
</g>
<g id="o-group">
	<g>
		<defs>
			<path id="SVGID_3_" d="M121.4,44.2c0.1,0.8,0.1,1.5,0,2c0,0.5-0.1,1.5-0.1,3c-0.1,1.4-0.2,2.8-0.3,4.1c-0.1,0.9-0.2,1.5-0.3,1.8
				c0,0.2-0.1,0.6-0.2,1.1s-0.2,0.9-0.2,1.1c-0.1,0.1-0.3,0.7-0.5,1.8s-0.4,2-0.6,2.6c-0.1,0.5-0.5,1.6-1.1,3.3
				c-0.4,0.8-0.8,1.6-1.1,2.4c-0.6,1.4-1.1,2.5-1.5,3.2c-0.1,0.2-0.7,1.3-1.8,3.3c-1.1,2-1.7,3.1-1.8,3.3c-0.7,1-1.4,2-2.1,3
				c-0.9,1.1-1.8,2.2-2.6,3.2c-0.5,0.5-1.4,1.4-2.6,2.6s-2,2-2.4,2.3c-1.1,0.8-2.2,1.6-3.2,2.3c-0.9,0.5-2.2,1.2-3.8,2
				c-1.8,0.9-3.4,1.7-4.7,2.3c-1,0.4-1.9,0.7-2.6,0.8c-0.5,0.1-1,0.2-1.6,0.2s-1.2,0-1.9,0.1c-0.7,0.1-1.3,0.1-1.7,0.1l-0.8,0.2
				L80.8,96c-1.1,0.1-2.6-0.2-4.5-0.8c-0.5-0.2-1.6-0.8-3.3-1.7c-0.5-0.3-0.9-0.6-1.2-0.9c-1.3-1.3-2.2-2.2-2.6-2.7
				c-0.6-0.8-1.5-2.1-2.6-3.9c-0.2-0.3-0.8-1.4-1.8-3.2c-1.4-2.5-2.2-4-2.3-4.4c-0.5-0.9-1-2.2-1.5-3.9c-0.3-0.7-0.6-1.7-0.8-2.9
				c0-0.3-0.1-1.2-0.3-2.6c0-0.1,0-0.3-0.1-0.7c-0.1-0.4-0.1-0.7-0.2-0.9c-0.1-0.2-0.1-0.5-0.1-0.8c0-2.5,0-4.5,0-5.9
				c0.1-0.5,0.3-2.4,0.6-5.6c0.1-0.9,0.2-1.5,0.3-1.8c0.5-2.4,0.9-4,1.1-4.8c0.6-1.8,1.2-3.5,1.8-5.1c0.6-1.4,1.5-3.3,2.7-5.7
				c0.4-0.7,1-1.6,1.7-2.7c1.6-2.4,2.7-4,3.3-4.8c0.1-0.3,1.3-1.8,3.6-4.4c1.2-1.5,1.9-2.3,2-2.4c1.5-1.6,2.9-3,4.1-4.1
				c1.2-1.2,2.4-2.2,3.5-3c1.1-0.9,2.5-1.9,4.2-3c1.5-1.1,2.9-1.9,4.2-2.3c0.2-0.1,0.5-0.2,0.9-0.4s0.7-0.3,0.9-0.4
				C96.8,9.3,97.8,9,98.1,9c2.7-0.5,4.8-0.7,6.3-0.5c1.4,0.2,2.6,0.6,3.6,1.2c1.5,0.9,2.6,1.9,3.2,2.9c1,1.5,2.5,4,4.5,7.4
				c1.6,2.7,2.5,4.6,2.7,5.6c0.1,0.2,0.2,0.4,0.3,0.7c0.1,0.3,0.2,0.5,0.2,0.7c0.1,0.2,0.1,0.4,0.2,0.7c0.1,0.3,0.2,0.5,0.2,0.8
				s0.1,0.5,0.2,0.7c0.2,0.9,0.4,2.2,0.6,3.8c0.3,2.5,0.6,4.8,0.9,6.9C121.2,40.5,121.3,42,121.4,44.2z M112.9,42
				c0.1-1.5,0.2-3.2,0.2-5c0-1.3-0.1-3.6-0.3-6.9c0-0.1-0.1-1.4-0.3-3.8c0-0.3-0.4-1-1.2-2.1c-0.5-0.5-1-1-1.5-1.5
				c-0.7-0.6-1.9-0.9-3.5-0.9c-0.5,0-1.8,0.1-3.9,0.3c-0.2,0-0.7,0.1-1.4,0.3c-0.1,0-0.3,0-0.6,0.1c-0.3,0.1-0.5,0.1-0.7,0.2
				c-0.1,0.1-0.4,0.1-0.6,0.2c-0.3,0.1-0.5,0.2-0.6,0.4c-0.2,0.2-0.3,0.3-0.4,0.5L98,24.1c-0.2-0.5-0.5-0.6-0.9-0.3
				c-0.1,0-0.3,0.1-0.5,0.2s-0.4,0.2-0.5,0.3c-1.4,0.7-2.2,1.1-2.4,1.2c-0.5,0.4-1.7,1.3-3.6,2.6c-1.4,0.9-2.3,1.5-2.6,1.8
				c-0.5,0.4-1.2,1-2,1.8c-0.9,0.8-1.4,1.3-1.7,1.5c0,0.1-0.4,0.5-1.2,1.1L82.5,34L82,34.6c-0.4,0.3-0.7,0.5-0.8,0.6
				c-1.9,3-3.2,5-3.9,6c-0.4,0.7-1.1,2.1-2.1,4.1c-0.2,0.3-0.7,1.3-1.5,3c-0.4,0.8-0.6,1.3-0.6,1.5c-0.6,1.9-1.2,3.7-1.7,5.3
				c-0.1,0.6-0.3,1.5-0.6,2.6c-0.2,1.2-0.4,2.2-0.5,3c-0.1,0.4-0.2,1.3-0.3,2.8c0,1.3,0,2.4,0,3c-0.1,0.2-0.1,0.5-0.1,1
				s0.1,0.8,0.1,1c0,0.1,0,0.7,0,1.7s0,1.6,0,1.7c0.1,1.6,0.2,3.1,0.5,4.5c0.3,2,1,3.3,2,3.8c0.3,0.2,0.5,0.4,0.8,0.6
				c1,0.8,2.7,1.5,5.1,2.1c0.5,0.2,1.6,0.4,3.2,0.5c1.2,0,2.2,0,3-0.2c0.4,0,0.9-0.1,1.5-0.2c0.6-0.2,1.1-0.2,1.4-0.2
				c1-0.1,2-0.5,3-1.2c1.8-1.2,3.2-2.2,4.2-3c1.5-1.3,2.9-2.7,4.2-4.1c1-1.2,2.2-2.8,3.5-4.7c1.1-1.5,2.2-3.2,3.3-5
				c1-1.8,1.9-3.5,2.7-5.1c0.3-0.6,0.8-1.9,1.5-3.9s1.2-3.4,1.4-4.1c0.3-1.1,0.6-2.5,0.9-4.2C112.5,45,112.8,43.2,112.9,42z"/>
		</defs>
		<use xlink:href="#SVGID_3_"  style="overflow:visible;fill:#D8C4B3;"/>
		<clipPath id="SVGID_4_">
			<use xlink:href="#SVGID_3_"  style="overflow:visible;"/>
		</clipPath>
		<g id="o-path" style="clip-path:url(#SVGID_4_);">
			<path style="fill:#D8C4B3;" d="M80,98.3c-15.3,0-22.7-16.5-25.3-22.2c-0.2-0.5-0.4-1-0.6-1.4c-3.7-7.5-4.3-25.1-4.3-25.2
				c0-5.5,1.9-7.8,20.1-24.9c5.9-5.5,11.8-10.9,14.8-13.6l0.9-7.9c4.2,0.5,9.4,1,10.6,1c2.8,0,24.2,3.4,28.7,17.3
				c3.2,9.8,0.2,36.4-4.4,49.1C114.6,86.6,98,95.2,84.4,97.9C82.9,98.2,81.4,98.3,80,98.3z M73.9,65.2c0.2,0.5,0.5,1.1,0.9,1.8
				c2.9,6.4,4.6,8.6,5.7,9.2c7.3-1.5,16.7-5.8,19.4-13.3c3.5-9.5,5-27.8,4.3-33.8c-1-0.7-2.8-1.4-4.6-2c-10.8,9.8-22.7,20.9-27.6,26
				C72.4,57.3,73.2,63.2,73.9,65.2z M73.9,65.1C73.9,65.1,73.9,65.1,73.9,65.1C73.9,65.1,73.9,65.1,73.9,65.1z"/>
		</g>
	</g>
</g>
<g id="l1-group">
	<g>
		<defs>
			<path id="SVGID_5_" d="M179.9,81.5v0.2l-1.1,0.8c-2.1,0.9-3.7,1.5-4.8,1.7c-0.4,0.1-1,0.3-1.7,0.5c-0.8,0.3-1.2,0.4-1.4,0.4
				c-0.3,0.1-0.8,0.2-1.4,0.4c-0.6,0.2-1.1,0.3-1.4,0.4c-0.3,0-0.8,0.1-1.4,0.3c-0.6,0.2-1,0.4-1.2,0.5c-0.3,0.1-0.8,0.2-1.4,0.4
				c-0.6,0.2-1.1,0.3-1.4,0.4c-0.4,0.1-0.8,0.2-1.2,0.4c-0.4,0.2-0.9,0.3-1.4,0.4s-0.9,0.2-1.2,0.3c-0.2,0.1-0.6,0.2-1.1,0.4
				c-0.6,0.2-1,0.3-1.3,0.4c-0.6,0.2-1.4,0.5-2.4,0.8c-1,0.4-1.6,0.5-1.7,0.5c-3.3,1.1-5,1.7-5.1,1.8c-0.4,0.1-2,0.7-4.7,1.8
				c-1.6,0.7-2.8,1.2-3.5,1.5c-0.6,0.3-1.5,0.8-2.7,1.4c-1.5,0.7-2.8,1.3-3.8,1.8c-0.2,0.1-0.9,0.5-2,1.1c-1.2,0.6-2,1.1-2.6,1.4
				c-2,0.9-4,1.8-5.9,2.6c-0.3,0.1-1.2,0.4-2.7,0.8c-0.2,0-0.4-0.1-0.6-0.2s-0.4-0.3-0.5-0.5c-0.1-0.3-0.2-0.5-0.2-0.8
				c-0.2-0.1-0.5-0.2-0.8-0.4c-0.3-0.2-0.6-0.3-0.9-0.5s-0.6-0.3-0.9-0.4c0.2-0.3,0.4-0.6,0.5-0.9h-0.8c-0.5,0-0.9-0.2-1.1-0.5
				l-0.3-0.2c-0.2,0-0.5-0.1-0.9-0.3l-0.2-0.2l0.9-0.6V99c-0.7,0-1.2-0.2-1.4-0.6c-0.2,0-0.3,0-0.4,0c0,0-0.3-0.1-0.7-0.3l0.2-0.2
				c0.1-0.2,0.2-0.3,0.3-0.3l0.3-0.2c-0.2-0.1-0.3-0.2-0.5-0.2c-0.1,0.1-0.2,0.2-0.3,0.2c-0.5,0.1-0.9,0-1.1-0.5l-0.3-0.2
				c-0.1-0.1-0.2-0.2-0.3-0.2l-0.3-0.2c-0.1-0.4,0.1-0.6,0.6-0.6v-0.2c-0.1,0-0.3,0-0.7-0.1c-0.3,0-0.6-0.1-0.7-0.2V95
				c0-0.6,0-1,0-1.1c0.1-0.2,0.3-0.4,0.5-0.5c0.3-0.1,0.7-0.2,1.3-0.4c0.6-0.2,1.1-0.3,1.5-0.4c0.9-0.4,1.7-0.8,2.4-1.1
				c0.1-0.1,0.3-0.5,0.6-1.1c0.5-1,1-2.1,1.5-3.3c0.9-1.9,1.5-3.3,1.8-4.1c0.2-0.4,0.4-1,0.7-1.7c0.2-0.8,0.4-1.2,0.5-1.3
				c0-0.2,0.1-0.5,0.3-1.1c0.2-0.5,0.4-0.9,0.5-1.2c0.1-0.3,0.2-0.7,0.5-1.2c0.2-0.5,0.3-0.8,0.3-1.1c0.1-0.2,0.2-0.5,0.4-1
				c0.2-0.5,0.3-0.8,0.4-1c0.1-0.3,0.2-0.7,0.4-1.1c0.2-0.4,0.2-0.7,0.2-0.8c0.1-0.3,0.2-0.7,0.5-1.3c0.2-0.5,0.3-0.9,0.3-1
				c0.2-0.4,0.4-1,0.7-1.8c0.2-0.8,0.4-1.4,0.5-1.8c0.4-1.1,0.7-1.9,0.9-2.4c0.1-0.2,0.2-0.6,0.4-1.1c0.2-0.5,0.3-1,0.5-1.3
				c0.3-1.1,0.5-2,0.8-2.7c0.1-0.3,0.2-0.6,0.3-1c0.1-0.4,0.2-0.7,0.3-1c0.1-0.3,0.2-0.6,0.3-0.9c0.1-0.3,0.2-0.8,0.5-1.4
				c0.2-0.7,0.4-1.1,0.5-1.4c0.1-0.2,0.2-0.7,0.4-1.2s0.3-1,0.4-1.3c0.1-0.3,0.3-0.8,0.5-1.4c0.2-0.7,0.4-1.1,0.5-1.4
				c0-0.3,0.1-0.7,0.3-1.3s0.4-1,0.5-1.3c0.1-0.5,0.4-1.3,0.8-2.4c0.4-1.2,0.8-2.3,1.2-3.3c0.1-0.3,0.3-1,0.7-2s0.6-1.8,0.8-2.3
				c0.1-0.4,0.3-1,0.5-1.7s0.4-1.2,0.5-1.5c0.6-1.4,1-2.3,1.1-2.6c0.1-0.3,0.6-1.6,1.5-3.7c0.9-2,1.4-3.1,1.5-3.3
				c0.6-1.3,1.4-2.9,2.3-4.7c0.1-0.2,0.2-0.4,0.4-0.7c0.2-0.2,0.3-0.5,0.5-0.8c0.2-0.2,0.3-0.5,0.4-0.7c0-0.1,0-0.2,0.2-0.5
				c0.1-0.2,0.2-0.3,0.2-0.5c0.3-0.6,0.6-0.7,0.9-0.2c0.3,0.5,0.6,0.5,0.9,0v-0.2v-0.2c0.4-0.4,0.8-0.4,1.1,0.2L147,15
				c0.3-0.4,0.5-0.6,0.5-0.7c0,0,0.2,0,0.8,0.1c0.7-0.4,1.2-0.3,1.4,0.2l0.2-0.2c0.2-0.2,0.3-0.3,0.4-0.3c0,0,0.2,0.1,0.4,0.3
				l0.5-0.5c0.4-0.1,0.6,0.1,0.6,0.5l0.2,0.5c0.3-0.2,0.6-0.4,0.9-0.6c0.1,0,0.2,0.3,0.3,0.8c0.6-0.4,1-0.6,1.1-0.6l0.2-0.2
				c0.1-0.5,0.5-0.7,1.1-0.5c0.5,0.2,0.8,0.1,0.9-0.3h0.6c0.1,0.4,0.2,0.7,0.3,0.8c0.3,0,0.6,0.1,0.9,0.2l0.2-0.3
				c0.2-0.1,0.4-0.2,0.5-0.2c0.2,0.1,0.3,0.3,0.3,0.5c-0.2,0.8-0.4,1.5-0.6,2c0,0.2-0.4,1-1.1,2.4c0,0.2-0.1,0.4-0.2,0.7
				c-0.2,0.3-0.3,0.5-0.5,0.8s-0.3,0.6-0.4,0.8c-0.6,1.4-1.3,2.9-2,4.5c-0.8,1.7-1.3,2.9-1.5,3.6c-0.1,0.3-0.3,0.7-0.5,1.3
				c-0.2,0.6-0.3,0.9-0.3,1.1c-0.1,0.2-0.3,0.5-0.5,1s-0.4,0.8-0.5,1c0,0.1-0.3,0.9-0.8,2.4c0,0.1-0.1,0.3-0.2,0.5
				c0,0.1-0.1,0.5-0.4,1.1c-0.3,0.6-0.4,1.1-0.5,1.4c-0.2,0.7-0.5,1.6-0.9,2.7c0,0.2-0.1,0.6-0.3,1.1c-0.2,0.6-0.4,0.9-0.5,1.1
				c-0.1,0.3-0.3,0.8-0.5,1.4c-0.2,0.6-0.4,1.1-0.5,1.4c-0.1,0.2-0.2,0.5-0.3,0.9s-0.2,0.7-0.2,0.8c-0.1,0.3-0.2,0.7-0.3,1.1
				c-0.1,0.2-0.4,0.9-0.8,2c-0.4,1.1-0.7,2-0.9,2.6c0,0.2-0.1,0.5-0.2,0.9c-0.2,0.4-0.2,0.7-0.2,0.9l-0.3,1.1c-0.6,2-1,3.1-1.1,3.3
				s-0.3,0.6-0.5,1.1c-0.2,0.6-0.4,1-0.5,1.3c-0.1,0.2-0.2,0.5-0.3,0.8c-0.1,0.4-0.2,0.6-0.2,0.7c-0.1,0.3-0.2,0.7-0.3,1.2
				c-0.1,0.1-0.2,0.4-0.4,0.8s-0.3,0.7-0.3,0.9c-0.1,0.2-0.1,0.5-0.2,0.8c-0.1,0.3-0.2,0.6-0.2,0.8c-0.1,0.3-0.1,0.5-0.2,0.7
				c-0.1,0.2-0.2,0.4-0.2,0.5c-0.1,0.2-0.1,0.3-0.2,0.5c-0.1,0.2-0.1,0.3-0.2,0.4c0,0.2-0.2,0.7-0.5,1.4c-0.1,0.3-0.3,0.8-0.5,1.4
				s-0.4,1.1-0.5,1.4c-0.4,1.1-0.7,1.8-0.8,2.1c-0.1,0.3-0.3,0.8-0.5,1.5c-0.3,0.7-0.4,1.2-0.5,1.5s-0.3,0.7-0.5,1.2
				s-0.4,0.8-0.5,0.9c0,0.1-0.2,0.6-0.5,1.4l1.5-0.6c0.3-0.1,0.9-0.3,1.9-0.7c1-0.4,1.7-0.6,2.2-0.8c1.8-0.6,3.4-1.2,4.8-1.7
				c0.4-0.1,1-0.2,1.7-0.5c0.7-0.2,1.2-0.4,1.4-0.5c0.2,0,0.9-0.2,2-0.5c1.1-0.4,1.9-0.6,2.4-0.8c0.5-0.1,1-0.2,1.6-0.4
				c0.5-0.2,1.1-0.3,1.7-0.4c0.6-0.1,1.1-0.2,1.5-0.3c0.3-0.1,0.7-0.2,1.1-0.3c0.4-0.1,0.8-0.2,1.2-0.3c0.4-0.1,0.8-0.2,1.2-0.3
				c0.1,0,0.3,0,0.6-0.2c0.2,0,0.4,0,0.5,0c2.4-0.3,3.7-0.5,3.9-0.5c0.4-0.1,1.6-0.2,3.6-0.2c0.1,0,0.7,0.1,1.8,0.2
				c0,0.1,0,0.2,0,0.3h-1.2v0.2c0.3,0,0.7,0.1,1.3,0.2c0.5,0.2,1,0.2,1.3,0.2V76v0.2c-0.1,0-0.3,0.1-0.5,0.2c0,0.1,0.2,0.2,0.5,0.2
				c0.4,0,0.5,0.2,0.5,0.5c0.7,0.1,1.1,0.2,1.2,0.3c0.1,0.1,0.1,0.3,0,0.6c0.5,0,0.8,0.3,0.9,0.8l0.8,0.9l-0.9,0.5
				c0.4,0,1,0,1.8,0.1s1.3,0.1,1.5,0.1c0,0.1-0.1,0.2-0.2,0.4c-0.1,0.2-0.2,0.3-0.2,0.4c0.7,0.1,1.1,0.2,1.2,0.2l0.2,0.2
				c-0.1,0.1-0.3,0.2-0.5,0.3c-0.2,0.1-0.4,0.2-0.5,0.2c-0.2,0.1-0.3,0.1-0.4,0.2c0.1,0.1,0.2,0.2,0.3,0.2c0.2,0,0.3,0,0.5,0
				c0,0.1-0.1,0.3-0.2,0.5C178.7,81.7,179.3,81.6,179.9,81.5z"/>
		</defs>
		<use xlink:href="#SVGID_5_"  style="overflow:visible;fill:#D8C4B3;"/>
		<clipPath id="SVGID_6_">
			<use xlink:href="#SVGID_5_"  style="overflow:visible;"/>
		</clipPath>
		<g id="l1-path" style="clip-path:url(#SVGID_6_);">
			<path style="fill:#D8C4B3;" d="M124.2,107.4c-6.6,0-12.4-3.9-14.9-10c-2.7-6.4-1.7-11.3,6.7-32.8c4.8-12.4,7.3-18.2,9-21.3
				c1.6-4.2,7.2-22.6,11.8-38.1l30.7,9.1c-9.7,32.8-12.5,41.2-14.7,44.9c-0.6,1.4-1.6,3.7-2.8,6.6c7.7-1.8,17.9-4.2,25.3-6l7.5,31.1
				c-3.2,0.8-31.2,7.5-37,8.7c-1.5,0.4-5.5,2.3-7.6,3.4C132.6,105.6,128.9,107.4,124.2,107.4z M120.1,76L120.1,76L120.1,76z
				 M150.5,61.9C150.5,61.9,150.5,61.9,150.5,61.9C150.5,61.9,150.5,61.9,150.5,61.9z"/>
		</g>
	</g>
</g>
<g id="l2-group">
	<g>
		<defs>
			<path id="SVGID_7_" d="M227,81.5v0.2l-1.1,0.8c-2.1,0.9-3.7,1.5-4.8,1.7c-0.4,0.1-1,0.3-1.7,0.5c-0.8,0.3-1.2,0.4-1.4,0.4
				c-0.3,0.1-0.8,0.2-1.4,0.4c-0.6,0.2-1.1,0.3-1.4,0.4c-0.3,0-0.8,0.1-1.4,0.3c-0.6,0.2-1,0.4-1.2,0.5c-0.3,0.1-0.8,0.2-1.4,0.4
				c-0.6,0.2-1.1,0.3-1.4,0.4c-0.4,0.1-0.8,0.2-1.2,0.4c-0.4,0.2-0.9,0.3-1.4,0.4s-0.9,0.2-1.2,0.3c-0.2,0.1-0.6,0.2-1.1,0.4
				c-0.6,0.2-1,0.3-1.3,0.4c-0.6,0.2-1.4,0.5-2.4,0.8c-1,0.4-1.6,0.5-1.7,0.5c-3.3,1.1-5,1.7-5.1,1.8c-0.4,0.1-2,0.7-4.7,1.8
				c-1.6,0.7-2.8,1.2-3.5,1.5c-0.6,0.3-1.5,0.8-2.7,1.4c-1.5,0.7-2.8,1.3-3.8,1.8c-0.2,0.1-0.9,0.5-2,1.1c-1.2,0.6-2,1.1-2.6,1.4
				c-2,0.9-4,1.8-5.9,2.6c-0.3,0.1-1.2,0.4-2.7,0.8c-0.2,0-0.4-0.1-0.6-0.2c-0.2-0.1-0.4-0.3-0.5-0.5c-0.1-0.3-0.2-0.5-0.2-0.8
				c-0.2-0.1-0.5-0.2-0.8-0.4c-0.3-0.2-0.6-0.3-0.9-0.5c-0.3-0.2-0.6-0.3-0.9-0.4c0.2-0.3,0.4-0.6,0.5-0.9h-0.8
				c-0.5,0-0.9-0.2-1.1-0.5l-0.3-0.2c-0.2,0-0.5-0.1-0.9-0.3l-0.2-0.2l0.9-0.6V99c-0.7,0-1.2-0.2-1.4-0.6c-0.2,0-0.3,0-0.4,0
				c0,0-0.3-0.1-0.7-0.3l0.2-0.2c0.1-0.2,0.2-0.3,0.3-0.3l0.3-0.2c-0.2-0.1-0.3-0.2-0.5-0.2c-0.1,0.1-0.2,0.2-0.3,0.2
				c-0.5,0.1-0.9,0-1.1-0.5l-0.3-0.2c-0.1-0.1-0.2-0.2-0.3-0.2l-0.3-0.2c-0.1-0.4,0.1-0.6,0.6-0.6v-0.2c-0.1,0-0.3,0-0.7-0.1
				c-0.3,0-0.6-0.1-0.7-0.2V95c0-0.6,0-1,0-1.1c0.1-0.2,0.3-0.4,0.5-0.5c0.3-0.1,0.7-0.2,1.3-0.4c0.6-0.2,1.1-0.3,1.5-0.4
				c0.9-0.4,1.7-0.8,2.4-1.1c0.1-0.1,0.3-0.5,0.6-1.1c0.5-1,1-2.1,1.5-3.3c0.9-1.9,1.5-3.3,1.8-4.1c0.2-0.4,0.4-1,0.7-1.7
				c0.2-0.8,0.4-1.2,0.5-1.3c0-0.2,0.1-0.5,0.3-1.1c0.2-0.5,0.4-0.9,0.5-1.2c0.1-0.3,0.2-0.7,0.5-1.2c0.2-0.5,0.3-0.8,0.3-1.1
				c0.1-0.2,0.2-0.5,0.4-1s0.3-0.8,0.4-1c0.1-0.3,0.2-0.7,0.4-1.1s0.2-0.7,0.2-0.8c0.1-0.3,0.2-0.7,0.5-1.3c0.2-0.5,0.3-0.9,0.3-1
				c0.2-0.4,0.4-1,0.7-1.8c0.2-0.8,0.4-1.4,0.5-1.8c0.4-1.1,0.7-1.9,0.9-2.4c0.1-0.2,0.2-0.6,0.4-1.1s0.3-1,0.5-1.3
				c0.3-1.1,0.5-2,0.8-2.7c0.1-0.3,0.2-0.6,0.3-1s0.2-0.7,0.3-1s0.2-0.6,0.3-0.9c0.1-0.3,0.2-0.8,0.5-1.4c0.2-0.7,0.4-1.1,0.5-1.4
				c0.1-0.2,0.2-0.7,0.4-1.2s0.3-1,0.4-1.3c0.1-0.3,0.3-0.8,0.5-1.4c0.2-0.7,0.4-1.1,0.5-1.4c0-0.3,0.1-0.7,0.3-1.3s0.4-1,0.5-1.3
				c0.1-0.5,0.4-1.3,0.8-2.4c0.4-1.2,0.8-2.3,1.2-3.3c0.1-0.3,0.3-1,0.7-2s0.6-1.8,0.8-2.3c0.1-0.4,0.3-1,0.5-1.7s0.4-1.2,0.5-1.5
				c0.6-1.4,1-2.3,1.1-2.6c0.1-0.3,0.6-1.6,1.5-3.7c0.9-2,1.4-3.1,1.5-3.3c0.6-1.3,1.4-2.9,2.3-4.7c0.1-0.2,0.2-0.4,0.4-0.7
				c0.2-0.2,0.3-0.5,0.5-0.8c0.2-0.2,0.3-0.5,0.4-0.7c0-0.1,0-0.2,0.2-0.5c0.1-0.2,0.2-0.3,0.2-0.5c0.3-0.6,0.6-0.7,0.9-0.2
				c0.3,0.5,0.6,0.5,0.9,0v-0.2v-0.2c0.4-0.4,0.8-0.4,1.1,0.2l0.2,0.3c0.3-0.4,0.5-0.6,0.5-0.7c0,0,0.2,0,0.8,0.1
				c0.7-0.4,1.2-0.3,1.4,0.2l0.2-0.2c0.2-0.2,0.3-0.3,0.4-0.3c0,0,0.2,0.1,0.4,0.3L198,14c0.4-0.1,0.6,0.1,0.6,0.5l0.2,0.5
				c0.3-0.2,0.6-0.4,0.9-0.6c0.1,0,0.2,0.3,0.3,0.8c0.6-0.4,1-0.6,1.1-0.6l0.2-0.2c0.1-0.5,0.5-0.7,1.1-0.5c0.5,0.2,0.8,0.1,0.9-0.3
				h0.6c0.1,0.4,0.2,0.7,0.3,0.8c0.3,0,0.6,0.1,0.9,0.2l0.2-0.3c0.2-0.1,0.4-0.2,0.5-0.2c0.2,0.1,0.3,0.3,0.3,0.5
				c-0.2,0.8-0.4,1.5-0.6,2c0,0.2-0.4,1-1.1,2.4c0,0.2-0.1,0.4-0.2,0.7c-0.2,0.3-0.3,0.5-0.5,0.8s-0.3,0.6-0.4,0.8
				c-0.6,1.4-1.3,2.9-2,4.5c-0.8,1.7-1.3,2.9-1.5,3.6c-0.1,0.3-0.3,0.7-0.5,1.3c-0.2,0.6-0.3,0.9-0.3,1.1c-0.1,0.2-0.3,0.5-0.5,1
				s-0.4,0.8-0.5,1c0,0.1-0.3,0.9-0.8,2.4c0,0.1-0.1,0.3-0.2,0.5c0,0.1-0.1,0.5-0.4,1.1c-0.3,0.6-0.4,1.1-0.5,1.4
				c-0.2,0.7-0.5,1.6-0.9,2.7c0,0.2-0.1,0.6-0.3,1.1c-0.2,0.6-0.4,0.9-0.5,1.1c-0.1,0.3-0.3,0.8-0.5,1.4c-0.2,0.6-0.4,1.1-0.5,1.4
				c-0.1,0.2-0.2,0.5-0.3,0.9s-0.2,0.7-0.2,0.8c-0.1,0.3-0.2,0.7-0.3,1.1c-0.1,0.2-0.4,0.9-0.8,2c-0.4,1.1-0.7,2-0.9,2.6
				c0,0.2-0.1,0.5-0.2,0.9c-0.2,0.4-0.2,0.7-0.2,0.9l-0.3,1.1c-0.6,2-1,3.1-1.1,3.3s-0.3,0.6-0.5,1.1c-0.2,0.6-0.4,1-0.5,1.3
				c-0.1,0.2-0.2,0.5-0.3,0.8c-0.1,0.4-0.2,0.6-0.2,0.7c-0.1,0.3-0.2,0.7-0.3,1.2c-0.1,0.1-0.2,0.4-0.4,0.8s-0.3,0.7-0.3,0.9
				c-0.1,0.2-0.1,0.5-0.2,0.8c-0.1,0.3-0.2,0.6-0.2,0.8c-0.1,0.3-0.1,0.5-0.2,0.7c-0.1,0.2-0.2,0.4-0.2,0.5
				c-0.1,0.2-0.1,0.3-0.2,0.5c-0.1,0.2-0.1,0.3-0.2,0.4c0,0.2-0.2,0.7-0.5,1.4c-0.1,0.3-0.3,0.8-0.5,1.4s-0.4,1.1-0.5,1.4
				c-0.4,1.1-0.7,1.8-0.8,2.1c-0.1,0.3-0.3,0.8-0.5,1.5c-0.3,0.7-0.4,1.2-0.5,1.5s-0.3,0.7-0.5,1.2s-0.4,0.8-0.5,0.9
				c0,0.1-0.2,0.6-0.5,1.4l1.5-0.6c0.3-0.1,0.9-0.3,1.9-0.7c1-0.4,1.7-0.6,2.2-0.8c1.8-0.6,3.4-1.2,4.8-1.7c0.4-0.1,1-0.2,1.7-0.5
				c0.7-0.2,1.2-0.4,1.4-0.5c0.2,0,0.9-0.2,2-0.5c1.1-0.4,1.9-0.6,2.4-0.8c0.5-0.1,1-0.2,1.6-0.4c0.5-0.2,1.1-0.3,1.7-0.4
				c0.6-0.1,1.1-0.2,1.5-0.3c0.3-0.1,0.7-0.2,1.1-0.3c0.4-0.1,0.8-0.2,1.2-0.3c0.4-0.1,0.8-0.2,1.2-0.3c0.1,0,0.3,0,0.6-0.2
				c0.2,0,0.4,0,0.5,0c2.4-0.3,3.7-0.5,3.9-0.5c0.4-0.1,1.6-0.2,3.6-0.2c0.1,0,0.7,0.1,1.8,0.2c0,0.1,0,0.2,0,0.3H216v0.2
				c0.3,0,0.7,0.1,1.3,0.2c0.5,0.2,1,0.2,1.3,0.2v0.2v0.2c-0.1,0-0.3,0.1-0.5,0.2c0,0.1,0.2,0.2,0.5,0.2c0.4,0,0.5,0.2,0.5,0.5
				c0.7,0.1,1.1,0.2,1.2,0.3c0.1,0.1,0.1,0.3,0,0.6c0.5,0,0.8,0.3,0.9,0.8l0.8,0.9l-0.9,0.5c0.4,0,1,0,1.8,0.1s1.3,0.1,1.5,0.1
				c0,0.1-0.1,0.2-0.2,0.4c-0.1,0.2-0.2,0.3-0.2,0.4c0.7,0.1,1.1,0.2,1.2,0.2l0.2,0.2c-0.1,0.1-0.3,0.2-0.5,0.3
				c-0.2,0.1-0.4,0.2-0.5,0.2c-0.2,0.1-0.3,0.1-0.4,0.2c0.1,0.1,0.2,0.2,0.3,0.2c0.2,0,0.3,0,0.5,0c0,0.1-0.1,0.3-0.2,0.5
				C225.8,81.7,226.4,81.6,227,81.5z"/>
		</defs>
		<use xlink:href="#SVGID_7_"  style="overflow:visible;fill:#D8C4B3;"/>
		<clipPath id="SVGID_8_">
			<use xlink:href="#SVGID_7_"  style="overflow:visible;"/>
		</clipPath>
		<g id="l2-path" style="clip-path:url(#SVGID_8_);">
			<path style="fill:#D8C4B3;" d="M181,114.4c-7,0-13.8-1.4-19-4.1c-7.6-4-15.5-13.5-13.1-27.4c0.3-1.6,0.7-3.3,1.3-5.3
				c0.8-2.6,1.9-6,3.4-10.4c2.4-6.8,5.9-16.1,10.3-27.6c7.5-19.4,15.4-38.9,15.5-39.1l46.4,18.7c-4.6,11.4-9.5,23.8-13.9,35.1
				c5.1-1.6,9.5-3,12.2-3.9L239.1,98c-17.9,5.7-38.2,12.2-41.5,13.5C192.7,113.4,186.8,114.4,181,114.4z M180.8,64.4
				C180.8,64.4,180.8,64.4,180.8,64.4C180.8,64.4,180.8,64.4,180.8,64.4z"/>
		</g>
	</g>
</g>
<g id="point-group">
	<g>
		<defs>
			<path id="SVGID_9_" d="M233.3,93.4c1.1-0.1,3-0.1,5.6,0.1c2.6,0.1,4.4,0.3,5.5,0.5c0,1.2,0,1.9,0,2s0,0.3-0.1,0.8
				c-0.1,0.4-0.1,0.8,0,1v1.8c0,1,0,1.6,0,1.7c-0.1,1.2-0.7,1.9-1.8,2c-0.1,0-0.2,0-0.4,0c-4.1-0.2-6.9-0.3-8.3-0.3l-0.7-0.1
				c-0.3-1.8-0.4-2.8-0.4-2.9s0.1-0.7,0.3-1.7l0.1-1.3c-0.6-0.6-0.6-1.5,0-2.9c0.1,0,0.1-0.1,0.1-0.4L233.3,93.4z"/>
		</defs>
		<use xlink:href="#SVGID_9_"  style="overflow:visible;fill:#D8C4B3;"/>
		<clipPath id="SVGID_10_">
			<use xlink:href="#SVGID_9_"  style="overflow:visible;"/>
		</clipPath>
		<g id="point-path" style="clip-path:url(#SVGID_10_);">
			<path style="fill:#D8C4B3;" d="M233.1,120.7l-7.2-39.4c4.7-0.9,9.9-1.9,11.4-2.3c5.6-1.8,10.7-2,12.2-2v40c0,0,0.1,0,0.2,0
				c0,0,0.1,0,0.1,0c0,0-0.1,0-0.1,0c0.1,0,0.1,0,0.2,0c-0.1,0-0.2,0-0.3,0C246,118.2,238.7,119.7,233.1,120.7z"/>
		</g>
	</g>
</g>
<g id="numb1-group">
	<g>
		<defs>
			<path id="SVGID_11_" d="M72.1,210.2c-0.8,0.6-1.6,1.1-2.3,1.7c-0.1-0.4-0.1-1,0.1-1.7s0.2-1.3,0.1-1.7c-0.6-0.7-1-1.2-1.3-1.5
				h0.6l0.2-0.4l-0.2,0.2l-0.4,0.2l-0.8,1.5c-0.3-0.1-0.6-0.1-0.8,0.1c-0.3,0.2-0.6,0.4-0.9,0.6c-0.3,0.2-0.6,0.3-0.8,0.3
				c-0.3-0.1-0.5-0.4-0.5-0.7c-0.1-0.4-0.1-0.7,0-1s0-0.6-0.1-1.1c-0.3,0.1-0.6,0.4-1.1,0.6l-0.4-0.6c0.1-1.4,0.4-2.5,0.6-3.2
				c1-4.7,2.6-10.5,4.9-17.6c5-15.9,8.4-27.3,10.2-34.4c0.6-2.5,1.6-6.9,3-13.2c0-0.1,0.1-1.1,0.2-3c-0.8,0.7-1.7,1.5-2.5,2.2
				c-0.8,0.8-1.6,1.6-2.3,2.3c-0.7,0.8-1.4,1.5-2.1,2c-4-0.8-6.1-1.3-6.4-1.5c-0.3,0-1.2-0.1-2.9-0.3c-1.6-0.2-2.8-0.7-3.5-1.4
				c0.4-1,0.7-1.6,0.8-1.7c0.1-0.1,1.6-1.6,4.2-4.5c7.4-7.8,12.9-14.2,16.6-19.3c3.3,0.6,5.1,0.9,5.5,1.1c3,0.4,4.9,0.8,5.7,1.1
				c0.1,0,1.3,0.4,3.4,1.1c0.3,1,0.4,2.5,0.2,4.5c-0.1,5.5-0.7,11.1-1.7,16.8c-2.5,14.9-7.2,31.2-13.8,48.9
				c-3.3,8.6-5.9,14.9-7.9,18.9c-1.4,2.5-2.4,4-3,4.5l0.2,0.2c-0.1-0.1-0.3-0.4-0.4-0.8c-0.1,0.1-0.2,0.3-0.3,0.4
				C72.1,209.9,72.1,210.1,72.1,210.2z"/>
		</defs>
		<use xlink:href="#SVGID_11_"  style="overflow:visible;fill:#D8C4B3;"/>
		<clipPath id="SVGID_12_">
			<use xlink:href="#SVGID_11_"  style="overflow:visible;"/>
		</clipPath>
		<g id="numb1-path" style="clip-path:url(#SVGID_12_);">
			<polygon style="fill:#D8C4B3;" points="85,220.5 48,205.5 59,178.5 64.4,165 69,145.2 51.3,130 81.7,94.5 116,121.1 106.9,158.7 
				102.6,177 96,193.5 			"/>
		</g>
	</g>
</g>
<g id="numb9-group">
	<g>
		<defs>
			<path id="SVGID_13_" d="M111.8,215.5c-0.2-0.1-0.4-0.2-0.5-0.4c0-0.2,0.1-0.5,0.2-0.9s0.2-0.7,0.4-1.1c0.1-0.4,0.2-0.7,0.4-0.9
				c-0.2-0.1-0.6-0.3-1.2-0.6c-0.5-0.3-0.9-0.6-1.2-0.8c-0.2,0.4-0.6,0.9-1,1.5c-0.4,0.7-0.8,1.2-1,1.5c-0.5-0.1-0.7-0.6-0.5-1.5
				c0.1-0.2,0-0.5-0.5-0.6c-0.4-0.2-0.6-0.5-0.5-0.8c0.1-0.1,0.4-0.7,0.7-1.8c2.2-6.2,5.6-13.7,10.2-22.7c1.8-3.5,4.4-8.5,7.7-15
				c3.3-6.5,5.7-11,7-13.5c0.7-1.3,1.1-2.4,1.1-3.1c-1.8,0.8-2.9,1.3-3.3,1.5c-4.7,2.3-8.6,3.8-11.6,4.4c-2.7,0.6-5.1,0.4-7.3-0.5
				c-4.5-1.7-7.2-2.8-8.2-3.3c-0.7-0.2-1.7-0.8-2.9-1.6c-2.1-1.5-2.8-3.5-2.2-6c0.5-1.7,1.3-3.5,2.4-5.4c1.3-2.8,3.8-5.9,7.3-9.3
				c7.3-7.4,15.3-13.4,24.2-18.2c2.9-1.5,6.1-2.7,9.4-3.6c1.9-0.5,3.8-0.3,5.4,0.5c2.3,1.1,5,2.2,8,3.5c2.9,1.2,4.5,3.4,4.7,6.5
				c0.1,2.1-0.1,4.2-0.7,6.4c-1,3.3-2,6.4-3.1,9.4c-2.3,5.9-6.2,14.3-11.6,25.2c-8.8,17.3-16.8,31.5-23.8,42.7
				c-0.7,1.1-1.9,2.9-3.6,5.4c-0.7,1-1.5,1.5-2.2,1.6C113.8,214,113.1,214.5,111.8,215.5z M146.5,123.1c0.1-0.1,0.2-0.9,0.4-2.4
				l-1.1,0.2c-0.2,0.1-0.7,0.3-1.5,0.5c-6.9,3.3-13.9,7.9-20.9,14c-4.1,3.6-7.7,7.5-10.7,11.6c-1.5,2.1-2.4,3.9-2.9,5.4
				c-0.2,0.7-0.2,1.2,0.2,1.5c0.6-0.1,1-0.2,1.1-0.2c6.3-1.9,12.4-4.9,18.3-8.9c4.2-2.9,7.8-5.9,10.7-9.1c2.4-2.8,3.8-4.5,4.2-5.3
				S145.4,127.3,146.5,123.1z"/>
		</defs>
		<use xlink:href="#SVGID_13_"  style="overflow:visible;fill:#D8C4B3;"/>
		<clipPath id="SVGID_14_">
			<use xlink:href="#SVGID_13_"  style="overflow:visible;"/>
		</clipPath>
		<g id="numb9-path" style="clip-path:url(#SVGID_14_);">
			<path style="fill:#D8C4B3;" d="M124.1,228.1l-33.3-22.2l18.4-27.5c-1.9,0.2-3.5,0.4-4.6,0.5l-0.3-3.2c-0.3-0.2-0.6-0.4-0.9-0.5
				c-0.8-0.5-18.9-11.8-18.9-28.2c0-11.1,7.6-18.3,23.6-31c0.2-0.1,16.4-12.9,22.4-15.9c8-4,18.1-3.7,26.4,0.7
				c8.5,4.6,14.1,12.8,15.4,22.7c1.3,10.2-4,19.1-10.5,26.4c1.7,6.2,1.3,12.5-1.5,18c-2.1,4.1-12.7,24.5-13.2,25.3l-0.5,0.9
				L124.1,228.1z M155.4,158.9C155.4,159,155.4,159,155.4,158.9C155.4,159,155.4,159,155.4,158.9z M100.4,139.1L100.4,139.1
				L100.4,139.1z"/>
		</g>
	</g>
</g>
<g id="slash-group">
	<defs>
		<path id="SVGID_15_" d="M152.9,212.6v0.3c-0.5,0.1-1,0.2-1.6,0.4c-0.2-0.5-0.3-1-0.4-1.4c0.3-0.2,0.3-0.5-0.1-0.9
			c0-0.1,0-0.2-0.1-0.3c0-0.1-0.1-0.3-0.1-0.4s0-0.2-0.1-0.3c0.3-0.1,0.5-0.4,0.4-0.9c0.2-0.1,0.3-0.4,0.3-0.9l0.4-0.1
			c-0.2,0.1-0.3,0.1-0.4,0.1c-0.1,0.4-0.2,0.8-0.3,1c0,0.1,0,0.3-0.1,0.5c-0.1,0.2-0.1,0.3-0.1,0.4c-0.1,0.2-0.2,0.5-0.3,1v-0.1
			c-0.5-0.3-1.1,0-1.8,0.7c-0.1-0.1-0.2-0.2-0.3-0.3s-0.2-0.3-0.3-0.4c-0.1-0.1-0.2-0.3-0.3-0.4c-0.1-0.1-0.3-0.3-0.4-0.4
			s-0.2-0.3-0.3-0.5l0.3-1.2c1-3,1.8-5.7,2.5-7.9c0.2-0.6,0.4-1.3,0.6-2c4.8-11.8,10.3-23.7,16.5-35.6c5.9-11.2,10.1-19.1,12.7-23.7
			c2.2-3.8,5.5-9.4,9.9-16.6c0.1-0.2,1.2-1.8,3.2-4.8c0.1,0,0.2,0,0.5,0c0.2,0,0.4,0,0.5-0.1c-0.4,0.6-0.4,1,0.1,1.3
			c0.1,0.1,0.3,0.2,0.6,0.3c0.3,0.1,0.5,0.2,0.7,0.3c0.2,0.1,0.3,0.4,0.3,0.7c0.4-0.1,0.9,0.1,1.3,0.5c0.4,0.4,0.8,0.6,1,0.7
			c0.3,0,0.5,0.1,0.8,0.3s0.5,0.3,0.8,0.4c0.3,0.1,0.5,0.2,0.8,0.3c0.6,0.2,0.9,0.6,0.8,1.2c0,0.6-0.2,1.1-0.3,1.6
			c-0.8,1.8-1.4,3.2-1.8,4c-0.9,1.6-1.8,3.2-2.9,5.1c-1,1.8-2.2,3.8-3.4,6c-1.3,2.2-2.2,3.9-2.8,5.1c-1.7,3-2.9,5.2-3.6,6.4
			c-6.8,12.7-12.5,23.5-16.9,32.6c-4.3,8.8-7.7,15.7-10.1,20.5c-0.2,0.3-1.8,3.3-4.9,8.8c-0.1-0.1-0.3-0.2-0.5-0.4
			c-0.3-0.2-0.4-0.3-0.5-0.4l0.1-0.1L152.9,212.6z M154.7,208.8h-0.1l0.1,0.1V208.8z"/>
	</defs>
	<use xlink:href="#SVGID_15_"  style="overflow:visible;fill:#D8C4B3;"/>
	<clipPath id="SVGID_16_">
		<use xlink:href="#SVGID_15_"  style="overflow:visible;"/>
	</clipPath>
	<g id="slash-path" style="clip-path:url(#SVGID_16_);">
		<path style="fill:#D8C4B3;" d="M154.6,222.1c0-0.1,0-0.2,0.1-0.2l-15.6-3.7c0.7-2.9,5-12.7,26-56c2-4.2,3.5-7.3,4.1-8.4
			c2.7-5.7,22.3-36.7,26.2-42.9l13.5,8.6c-8.8,13.9-23.5,37.4-25.2,41.1c-0.5,1.1-2.1,4.3-4.1,8.6
			C173.1,182.4,156,217.7,154.6,222.1z"/>
	</g>
</g>
<g id="numb2-group">
	<defs>
		<path id="SVGID_17_" d="M262.4,196c-0.7,0.6-1.1,1.2-1.2,1.7c0,0.1-0.2,1-0.7,2.5c-0.7-0.6-1.5-1.3-2.2-2c0,1.6-0.1,2.5-0.1,2.6
			c-0.1,0.5-0.2,1.2-0.4,2c-0.4,1-0.7,1.7-1,2.1c-0.5,0.8-1.2,0.9-2.1,0.4c-0.3,0-0.6-0.2-0.9-0.4c-0.3-0.2-0.5-0.4-0.7-0.4
			c-1.9-1-3.1-1.5-3.5-1.6c-6.5-2-12.3-3-17.4-2.8c-5.9,0.1-11.8,1.1-17.8,3.2c-2.2,0.8-4,1.9-5.3,3.1c-0.2,0.3-0.4,0.5-0.8,0.8
			c-0.4,0.3-0.6,0.5-0.8,0.6c-1.8,1.7-3.8,2.8-6,3.4c-1.3-0.3-3.7-1.5-7.2-3.8c-0.1,0-0.4-0.2-0.7-0.5c-0.3-0.3-0.5-0.5-0.7-0.5
			c-1.2-0.4-2.2-0.9-3-1.6c-0.9-0.7-1.6-1.6-2.1-2.7c0.3-0.5,1.2-1.1,2.6-1.7c1.3-0.5,2.7-1.5,4.3-2.8c0.9-0.7,1.8-1.5,2.9-2.3
			c1-0.8,2.1-1.7,3.2-2.6c1.1-0.9,2-1.6,2.7-2.2c2-1.7,3.3-2.7,3.8-3.2c12.4-12.5,21.1-22.2,26-29c2-2.9,4.2-6,6.4-9.4
			c2.7-4.1,5.2-9.6,7.4-16.5c0.1-0.1,0.3-0.8,0.4-2.2c-0.7-0.7-1.6-0.9-2.8-0.5c-4.9,1.5-7.8,2.5-8.7,2.9c-7.3,3-13.8,6.9-19.5,11.6
			c-3.5,3-6.2,6.1-8,9.2c-1.3,2-1.8,3.6-1.5,4.9c-0.9-0.1-1.4-0.2-1.4-0.3c-2.9-1.6-5.1-2.9-6.4-3.9c-2.4-1.6-2.8-3.5-1.2-5.8
			c1.7-2.6,3.4-4.8,5.1-6.5c6.1-6.2,13.1-11,21-14.5c2.5-1.1,6.3-2.5,11.3-4.2c2.1-0.7,4.5-1.2,7.4-1.4c1.6-0.1,3.1,0.3,4.5,1.3
			c0.9,0.5,2.1,1.3,3.8,2.4c1.6,1.1,2.9,2,3.7,2.6c1.5,1,2.4,2.5,2.5,4.5c0.1,2.7-0.1,5.1-0.8,7.4c-2.5,8.7-6.8,17.5-12.8,26.2
			c-4.9,7.1-10.9,14.1-18.1,21l2-0.2c7.9-2.7,16.8-2.1,26.6,1.6C258.7,190,261.4,192.5,262.4,196z"/>
	</defs>
	<use xlink:href="#SVGID_17_"  style="overflow:visible;fill:#D8C4B3;"/>
	<clipPath id="SVGID_18_">
		<use xlink:href="#SVGID_17_"  style="overflow:visible;"/>
	</clipPath>
	<g id="numb2-path" style="clip-path:url(#SVGID_18_);">
		<path style="fill:#D8C4B3;" d="M250,224.6c-2.3-2.1-7.1-5.8-10.6-7.4c-1.8-0.4-6.1-0.1-7.4,0.2l-3.3,0.7
			c-1.9,0.4-6.2,1.2-10.5,1.9c-7.3,1.1-20.8,3.1-30.4-8.3c-5.9-7-7.6-16.7-4.4-25.2c2.3-6.2,5.1-9.2,21-23.8l-24.7-23.1
			c21.1-22.6,27.1-25.6,30-27c0.2-0.1,23.6-11.1,34-11.4c13.2-0.3,28.2,7.3,31.2,22.5c0.4,2.2,0.8,4.8,0.5,13.2l-0.2,4.7l-13.6,31
			c11.4,5.5,20.7,13.9,22.5,15.7L250,224.6z M239.5,217.3C239.5,217.3,239.5,217.3,239.5,217.3L239.5,217.3z"/>
	</g>
</g>
<g id="num0-group">
	<defs>
		<path id="SVGID_19_" d="M251.6,189v-4.1c0.6-0.9,0.9-2,1-3.1c1.2-10.1,4.3-20.7,9.3-31.6c3.3-7.3,6.6-12.9,9.8-16.9
			c1.2-1.5,2.8-3.3,5-5.4c1.6-1.6,3.5-2.1,5.7-1.6c0.8,0.2,1.9,0.5,3.3,0.7c1.4,0.2,2.2,0.3,2.6,0.3c0.6,0.1,1,0.3,1.4,0.5
			c0.8,0.6,2.4,1.2,4.8,1.7c2.8,0.7,5.5,1.8,8.3,3.3c6.1,3.3,9.7,8.5,10.7,15.4c0.6,4.1,0.2,8.6-1,13.3c-4,13.9-11,25.9-20.9,35.9
			c-3.2,3.2-6.6,5.8-10.2,7.6c-1.4,0.7-2.8,1.3-4.3,1.9c-2.2,0.8-4.3,1-6.4,0.5c-1.2-0.3-2.7-0.7-4.8-1.1c-2-0.4-3.3-0.7-3.9-0.8
			c-3.1-0.6-5.5-2.4-7.1-5.4c-1.2-2.2-1.9-4.7-2.2-7.6C252.6,191.1,252.2,189.9,251.6,189z M265.2,199.6c0.7,1.8,1.4,3,2.1,3.5h0.5
			c0.2-0.1,0.6-0.3,1.2-0.5c3.6-1.5,7.4-4.2,11.6-8.1c6.7-6.5,12.4-15.1,17.3-25.9c1.2-2.9,2.2-6.1,3.1-9.7
			c1.3-4.6,1.7-8.6,1.2-11.9c-0.9-7.7-5-13.2-12.3-16.4c-1.5,0.8-2.3,1.2-2.4,1.2c-0.8,0.1-1.7,0.8-2.8,1.9c-2,2.2-4.3,5.5-6.9,10
			c-4.6,7.7-8.4,16.9-11.2,27.6c-2,6.9-2.9,13.4-2.8,19.5C263.8,194.1,264.3,197.1,265.2,199.6z"/>
	</defs>
	<use xlink:href="#SVGID_19_"  style="overflow:visible;fill:#D8C4B3;"/>
	<clipPath id="SVGID_20_">
		<use xlink:href="#SVGID_19_"  style="overflow:visible;"/>
	</clipPath>
	<g id="numb0-path" style="clip-path:url(#SVGID_20_);">
		<path style="fill:#D8C4B3;" d="M269.5,220.5c-5.2,0-10.4-1.5-14.8-4.9c-8.6-6.7-12.6-23.5-10.4-33.4c1.3-5.9,14.4-40.3,22.1-60.3
			l5,1.9l0.7-10.8c19.8,1.2,21.4,1.8,23.2,2.4l8.4,2.8l3.6,2.8l10.1,10.3l1.1,3.7c0.4,1.4,2.4,8.5,2.7,14.8
			c0.3,5.8-3.8,29.9-7.5,36.1c-2.9,4.9-20.4,23.4-24.8,27.3C283.9,217.6,276.8,220.5,269.5,220.5z M289.5,145.7
			c-6.1,15.9-11.8,31.2-14.4,38.8c4.6-4.9,10.1-10.9,12.4-13.7c1.3-4.6,3.6-16.4,3.7-19.8c-0.1-1.2-0.4-2.8-0.7-4.4L289.5,145.7z
			 M287.1,172L287.1,172L287.1,172z"/>
	</g>
</g>
</svg>
